<svg version="1.2" xmlns="http://www.w3.org/2000/svg" xmlns:xlink="http://www.w3.org/1999/xlink" overflow="visible" preserveAspectRatio="none" viewBox="0 0 12 11.999892134712127" width="12" height="11.999892134712127"><g transform="translate(0, 0)"><defs><path id="path-161312085861067" d="M4.1535206754991245 8.851006259344432 C4.1535206754991245 8.851006259344432 4.883591901561456 8.120989923215543 4.883591901561456 8.120989923215543 C4.883591901561456 8.120989923215543 6.0011310967630145 7.003534749476352 6.0011310967630145 7.003534749476352 C6.112613108936405 6.89206111900602 6.220016510908332 6.773790315946032 6.343734353686118 6.677270465172939 C6.297510104736177 6.712615762639143 6.252645392520056 6.747961060105345 6.206421143570113 6.783306357571548 C6.302700433927809 6.709495279159516 6.40772623370496 6.647854335812416 6.519114592349138 6.599782697650879 C6.464733122996263 6.622893084455704 6.4103516536433895 6.646003471260529 6.357329721024337 6.667754423547422 C6.478299498650473 6.617071871097323 6.605349439830407 6.582341405036436 6.735280933026812 6.564437400184675 C6.735280933026812 6.564437400184675 6.554462547428505 6.588907221507431 6.554462547428505 6.588907221507431 C6.677728494632005 6.573954076128293 6.802350128558371 6.573954076128292 6.92561607576187 6.588907221507431 C6.92561607576187 6.588907221507431 6.744797690163564 6.564437400184675 6.744797690163564 6.564437400184675 C6.874860247550419 6.581697050152032 7.001994122964266 6.616450460537295 7.1227489021660375 6.667754423547422 C7.068367432813163 6.644644036742599 7.01398596346029 6.621533649937772 6.960964030841238 6.599782697650879 C7.072052158614764 6.648472884717038 7.176971190998938 6.710169216532096 7.27352152594688 6.783578244475135 C7.2272972769969375 6.7482329470089315 7.182432564780816 6.71288764954273 7.136208315830874 6.677542352076526 C7.229477765769571 6.750413869980729 7.313486077739947 6.834415865840448 7.386363074854093 6.92767830337581 C7.3510151197747255 6.88145752976616 7.315667164695357 6.836596190674439 7.280319209615991 6.790375417064789 C7.3541358378835255 6.886647468726246 7.4157814160135915 6.991665372206495 7.463856668681939 7.103045356188894 C7.440744544206968 7.048667975471659 7.417632419731996 6.994290594754423 7.395879831990848 6.941272648555119 C7.446566195262422 7.06223333114668 7.481299272707295 7.18927372015887 7.499204623761308 7.319195444539905 C7.491047403358377 7.259380325750947 7.482890182955445 7.198205772444056 7.474732962552515 7.138390653655098 C7.4896872322587615 7.261647333187996 7.4896872322587615 7.3862595975173315 7.474732962552515 7.5095162770502295 C7.482890182955446 7.449701158261271 7.491047403358377 7.3885266049543805 7.499204623761308 7.328711486165422 C7.481943676040747 7.458764264882931 7.447187652546313 7.5858885818184945 7.395879831990848 7.706634282150209 C7.418991956465819 7.652256901432974 7.442104080940789 7.597879520715737 7.463856668681939 7.544861574516433 C7.415257784665078 7.6559753814582105 7.353648136595756 7.760932075363244 7.280319209615991 7.857531513640538 C7.315667164695359 7.811310740030888 7.351015119774726 7.766449400939167 7.386363074854093 7.720228627329519 C7.293914576954209 7.837139995871575 7.182432564780816 7.940457019234323 7.076388699542713 8.045133477115 C7.076388699542713 8.045133477115 6.525776322344865 8.595432569973424 6.525776322344865 8.595432569973424 C6.525776322344865 8.595432569973424 5.30763140884049 9.8134858980395 5.30763140884049 9.8134858980395 C5.156722831386265 9.96438312952983 5.008533327399684 10.116639795538088 4.839950772405775 10.247145509259454 C4.886175021355717 10.21180021179325 4.931039733571838 10.176454914327048 4.977263982521782 10.141109616860845 C4.78422674870387 10.289109705626128 4.573168606428956 10.41198929806618 4.349158011496089 10.506797502184254 C4.403539480848963 10.483687115379428 4.457920950201837 10.460576728574605 4.510942882820888 10.43882577628771 C4.274206821787676 10.538028981568473 4.025604436423093 10.606115324323756 3.771354899621804 10.641381519459411 C3.771354899621804 10.641381519459411 3.9521732852201095 10.616911698136656 3.9521732852201095 10.616911698136656 C3.693158820393184 10.650897276205459 3.4308136648332948 10.650897276205459 3.1717992000063693 10.616911698136656 C3.1717992000063693 10.616911698136656 3.352617585604675 10.641381519459411 3.352617585604675 10.641381519459411 C3.098368048803386 10.606115324323756 2.849765663438803 10.538028981568473 2.6130296024055903 10.43882577628771 C2.667411071758464 10.461936163092535 2.721792541111338 10.48504654989736 2.7748144737303897 10.506797502184254 C2.5509576245698242 10.411682242013576 2.339936899896117 10.288824434374323 2.146708502704697 10.141109616860845 C2.1929327516546397 10.17645491432705 2.23779746387076 10.211800211793252 2.2840217128207034 10.247145509259454 C2.0853921638685327 10.092267035102752 1.906825109747484 9.913256747533437 1.752442849896361 9.714247178230545 C1.7877908049757292 9.760467951840194 1.8231387600550968 9.805329290931915 1.858486715134465 9.851550064541565 C1.7104754982414687 9.658527344103359 1.5875866664839973 9.44748507009851 1.4927713337363884 9.223491317257494 C1.5158834582113596 9.277868697974728 1.5389955826863313 9.332246078691965 1.5607481704274808 9.385264024891269 C1.4616066963087146 9.148625890730285 1.3935613780001703 8.900135212112266 1.358313150761407 8.646003534040453 C1.3664703711643382 8.705818652829413 1.3746275915672694 8.766993206136302 1.3827848119702004 8.826808324925262 C1.348796678525543 8.567813333933529 1.348796678525543 8.305487902624662 1.3827848119702004 8.046492911632932 C1.3746275915672694 8.10630803042189 1.3664703711643382 8.167482583728779 1.358313150761407 8.227297702517738 C1.393581997562523 7.973067281303607 1.4616734597303958 7.724483586948751 1.5608841241008622 7.487765324763335 C1.5377719996258912 7.542142705480572 1.5146598751509197 7.596520086197807 1.49290728740977 7.649538032397111 C1.588029699297529 7.425698013769119 1.7108967446162024 7.214693154552259 1.858622668807847 7.021479285113039 C1.823274713728479 7.06770005872269 1.7879267586491112 7.11256139781441 1.752578803569743 7.158782171424059 C1.9483520932400886 6.905927351088914 2.1903496318603777 6.685698959184109 2.416032729674804 6.461392263725513 C2.416032729674804 6.461392263725513 3.6137845921718506 5.263730453428401 3.6137845921718506 5.263730453428401 C3.6137845921718506 5.263730453428401 5.090241485102377 3.787384566955455 5.090241485102377 3.787384566955455 C5.090241485102377 3.787384566955455 6.349036546948025 2.5285482033514532 6.349036546948025 2.5285482033514532 C6.525776322344865 2.3518217160204378 6.701156561007882 2.1750952286894223 6.879255873138544 1.9983687413584068 C6.967907625496098 1.9102107891448115 7.061892735169565 1.8275827509303357 7.160679977039668 1.750951659094985 C7.114455728089725 1.786296956561188 7.069591015873603 1.821642254027391 7.023366766923662 1.8569875514935945 C7.216404000741574 1.7089874627283124 7.427462143016486 1.5861078702882598 7.651472737949356 1.4912996661701854 C7.597091268596481 1.5144100529750104 7.542709799243608 1.5375204397798357 7.489687866624555 1.5592713920667296 C7.726423927657768 1.4600681867859655 7.975026313022351 1.3919818440306824 8.22927584982364 1.3567156488950274 C8.22927584982364 1.3567156488950274 8.048457464225333 1.3811854702177833 8.048457464225333 1.3811854702177833 C8.307471929052259 1.3471998921489807 8.56981708461215 1.3471998921489807 8.828831549439075 1.3811854702177833 C8.828831549439075 1.3811854702177833 8.64801316384077 1.3567156488950274 8.64801316384077 1.3567156488950274 C8.902262700642058 1.3919818440306826 9.150865086006641 1.460068186785965 9.387601147039854 1.5592713920667296 C9.33321967768698 1.5361610052619048 9.278838208334108 1.5130506184570793 9.225816275715054 1.4912996661701854 C9.44967312487562 1.5864149263408627 9.660693849549329 1.709272733980117 9.853922246740748 1.8569875514935945 C9.807697997790807 1.8216422540273913 9.762833285574683 1.7862969565611886 9.716609036624742 1.750951659094985 C9.913581300655476 1.9053108028538657 10.09075328379513 2.0833826544147986 10.244109289347616 2.281131121088032 C10.20876133426825 2.2349103474783814 10.173413379188881 2.190049008386662 10.138065424109515 2.143828234777012 C10.286076641002511 2.336850955215218 10.408965472759983 2.5478932292200662 10.503780805507592 2.7718869820610825 C10.48066868103262 2.7175096013438473 10.457556556557648 2.6631322206266117 10.435803968816497 2.610114274427307 C10.535014633186965 2.8468325366127223 10.603106095354839 3.0954162309675795 10.638374942155952 3.3496466521817103 C10.630217721753022 3.2898315333927517 10.622060501350091 3.2286569800858613 10.61390328094716 3.168841861296902 C10.647891414391818 3.4278368522886344 10.647891414391818 3.6901622835975 10.61390328094716 3.9491572745892327 C10.622060501350093 3.8893421558002736 10.630217721753024 3.8281676024933837 10.638374942155952 3.768352483704424 C10.603106095354839 4.022582904918554 10.535014633186965 4.271166599273412 10.435803968816497 4.507884861458827 C10.45891609329147 4.4535074807415915 10.482028217766441 4.399130100024356 10.503780805507592 4.346112153825051 C10.408658393619831 4.569952172453044 10.285791348301156 4.780957031669902 10.138065424109515 4.974170901109122 C10.173413379188883 4.927950127499472 10.20876133426825 4.883088788407753 10.244109289347616 4.836868014798102 C10.167866378802636 4.935972600770275 10.085210735504003 5.02997497318627 9.996673603792042 5.118270960009796 C9.87100281781961 5.24714062785396 9.799901463324773 5.4195241012104285 9.79818124065405 5.599510779357329 C9.79818124065405 5.766721225062829 9.871596224280431 5.965198664680739 9.996673603792042 6.0807505987048645 C10.125829593505117 6.199021401764851 10.295771685232847 6.287384645430359 10.477949607564975 6.279228038322775 C10.65740845642946 6.271071431215188 10.828710084891009 6.2098968779082995 10.959225611337908 6.0807505987048645 C11.647151198651763 5.387438994560111 12.040057314726276 4.410005576167801 11.996552139243978 3.4298532887396314 C11.973440014769006 2.909189868372101 11.842924488322108 2.417074572881119 11.61588185377386 1.9494290987128933 C11.503040304866648 1.7156063616287804 11.354850800880065 1.510331749421216 11.194425466289086 1.3064165717315828 C11.06659812254546 1.142821125674931 10.921665586185934 0.9933422017072047 10.762092784933738 0.8605220498502512 C10.362388985190117 0.5288200274751144 9.91510139976273 0.275965207139969 9.413432344982468 0.13458401727515662 C9.167356196160714 0.0652528568606813 8.90904421673456 0.027188690358616402 8.653451310776056 0.008156607107583952 C8.454877523918945 -0.006362128965294781 8.255337310306953 -0.0004401478076943901 8.057974221362088 0.025829255840685506 C7.801021778669758 0.05845568427102685 7.549507482912717 0.1005981543268844 7.3047908708247835 0.18624252895653043 C7.0655124056721395 0.2691680345503146 6.827593477253316 0.3724850579130622 6.610067599841821 0.5029907716344275 C6.351945871684203 0.6595565994320444 6.113663747887202 0.8466989855831637 5.900389424786816 1.0603589239860933 C5.900389424786816 1.0603589239860933 5.3837654659345135 1.5769440407998312 5.3837654659345135 1.5769440407998312 C5.3837654659345135 1.5769440407998312 4.373629672704881 2.587003887622482 4.373629672704881 2.587003887622482 C4.373629672704881 2.587003887622482 3.1541252224666843 3.8064166502064887 3.1541252224666843 3.8064166502064887 C3.1541252224666843 3.8064166502064887 2.0053166823872237 4.95513881785809 2.0053166823872237 4.95513881785809 C2.0053166823872237 4.95513881785809 1.2222235237058405 5.738173100186282 1.2222235237058405 5.738173100186282 C0.9367208096032527 6.023654348951769 0.6634539261050614 6.3213705083786325 0.4636020262332499 6.677542352076526 C0.33924498789186863 6.899941606265803 0.2381065471593083 7.134546925647255 0.1617848713247999 7.377651128810935 C0.08293174076313278 7.623708776556425 0.043505175482299235 7.877923031409502 0.0163144408058623 8.133496720780508 C-0.00521050860033374 8.334548356506952 -0.00566616170326239 8.537298742507557 0.01495490407204045 8.738445081259755 C0.04078610201465553 8.9912999015949 0.08021266729548909 9.242795287412115 0.1549871876556907 9.486134066121744 C0.3099743753113813 9.98504653420238 0.5669268180037104 10.43094105608371 0.9108896116606375 10.822458197247807 C1.08219124012219 11.018216767829855 1.2820431399940015 11.181348909981562 1.4900522602687443 11.337683879543613 C1.6542379433644252 11.460030274145689 1.8310846138147956 11.564398425500395 2.0175525129916214 11.648994384149788 C2.251392831208979 11.755030276548396 2.4893117596278023 11.848831258285628 2.7408260553848436 11.905927508038724 C2.9916814415797415 11.962970513847765 3.2476807089009974 11.994398665791786 3.5048856997927214 11.999728489775956 C3.956251895421574 12.007885096883541 4.426651605323934 11.93039732936148 4.845388919341062 11.759108580102188 C5.083307847759885 11.66122929481116 5.3144290925096 11.556552836930486 5.527876359719629 11.41109334351188 C5.725690593670896 11.277825746826554 5.910905303881998 11.126752870640697 6.081207810385121 10.959761083558824 C6.158701404212966 10.883632750554693 6.234835461306989 10.806144983032635 6.312329055134834 10.728657215510573 C6.312329055134834 10.728657215510573 7.435306397271679 9.605764303699658 7.435306397271679 9.605764303699658 C7.699056523633119 9.342034007221066 7.9628066499945565 9.081022579778335 8.225197239622172 8.815932848781811 C8.369663806037313 8.673624291461286 8.492017698946976 8.510498033046256 8.588193547552608 8.331974160398415 C8.737742588273012 8.047852346150858 8.812517108633212 7.762371097385373 8.83970784330965 7.444263420189545 C8.887291628993413 6.877379226212364 8.658889457711343 6.310495032235183 8.285016855910337 5.893148635230401 C7.908425180641683 5.471723934671825 7.346936509573262 5.239260632105642 6.788166911972483 5.221587983372541 C6.631820187582969 5.216150245300819 6.474113926459635 5.239260632105643 6.3204862755377675 5.2650898879463295 C6.221891796912499 5.281763872646611 6.125298471064839 5.308643956367889 6.032264487967535 5.345296524504251 C5.737245016728195 5.462207893046309 5.480292574035866 5.610386255500775 5.253249939487618 5.836052385477303 C5.007173790665863 6.079391164186931 4.763816715311753 6.325448811932422 4.5191001032238205 6.570147025159983 C4.5191001032238205 6.570147025159983 3.40020137128844 7.688961633417105 3.40020137128844 7.688961633417105 C3.40020137128844 7.688961633417105 3.1962708612151634 7.892876811106738 3.1962708612151634 7.892876811106738 C3.0706000752427323 8.021746478950902 2.999498720747895 8.194129952307371 2.997778498077173 8.374116630454273 C2.997778498077173 8.54132707615977 3.0711934817035536 8.739804515777681 3.1962708612151634 8.855356449801807 C3.3254268509282388 8.973627252861794 3.4953689426559693 9.061990496527303 3.6775468649880967 9.053833889419717 C3.852927103651114 9.041598978758339 4.024228732112666 8.98042442545145 4.153384721825743 8.851278146248015 C4.153384721825743 8.851278146248015 4.1535206754991245 8.851006259344432 4.1535206754991245 8.851006259344432 Z" vector-effect="non-scaling-stroke"/></defs><g transform="translate(0.00017741248343671688, -0.0004180920914705573)"><path d="M4.1535206754991245 8.851006259344432 C4.1535206754991245 8.851006259344432 4.883591901561456 8.120989923215543 4.883591901561456 8.120989923215543 C4.883591901561456 8.120989923215543 6.0011310967630145 7.003534749476352 6.0011310967630145 7.003534749476352 C6.112613108936405 6.89206111900602 6.220016510908332 6.773790315946032 6.343734353686118 6.677270465172939 C6.297510104736177 6.712615762639143 6.252645392520056 6.747961060105345 6.206421143570113 6.783306357571548 C6.302700433927809 6.709495279159516 6.40772623370496 6.647854335812416 6.519114592349138 6.599782697650879 C6.464733122996263 6.622893084455704 6.4103516536433895 6.646003471260529 6.357329721024337 6.667754423547422 C6.478299498650473 6.617071871097323 6.605349439830407 6.582341405036436 6.735280933026812 6.564437400184675 C6.735280933026812 6.564437400184675 6.554462547428505 6.588907221507431 6.554462547428505 6.588907221507431 C6.677728494632005 6.573954076128293 6.802350128558371 6.573954076128292 6.92561607576187 6.588907221507431 C6.92561607576187 6.588907221507431 6.744797690163564 6.564437400184675 6.744797690163564 6.564437400184675 C6.874860247550419 6.581697050152032 7.001994122964266 6.616450460537295 7.1227489021660375 6.667754423547422 C7.068367432813163 6.644644036742599 7.01398596346029 6.621533649937772 6.960964030841238 6.599782697650879 C7.072052158614764 6.648472884717038 7.176971190998938 6.710169216532096 7.27352152594688 6.783578244475135 C7.2272972769969375 6.7482329470089315 7.182432564780816 6.71288764954273 7.136208315830874 6.677542352076526 C7.229477765769571 6.750413869980729 7.313486077739947 6.834415865840448 7.386363074854093 6.92767830337581 C7.3510151197747255 6.88145752976616 7.315667164695357 6.836596190674439 7.280319209615991 6.790375417064789 C7.3541358378835255 6.886647468726246 7.4157814160135915 6.991665372206495 7.463856668681939 7.103045356188894 C7.440744544206968 7.048667975471659 7.417632419731996 6.994290594754423 7.395879831990848 6.941272648555119 C7.446566195262422 7.06223333114668 7.481299272707295 7.18927372015887 7.499204623761308 7.319195444539905 C7.491047403358377 7.259380325750947 7.482890182955445 7.198205772444056 7.474732962552515 7.138390653655098 C7.4896872322587615 7.261647333187996 7.4896872322587615 7.3862595975173315 7.474732962552515 7.5095162770502295 C7.482890182955446 7.449701158261271 7.491047403358377 7.3885266049543805 7.499204623761308 7.328711486165422 C7.481943676040747 7.458764264882931 7.447187652546313 7.5858885818184945 7.395879831990848 7.706634282150209 C7.418991956465819 7.652256901432974 7.442104080940789 7.597879520715737 7.463856668681939 7.544861574516433 C7.415257784665078 7.6559753814582105 7.353648136595756 7.760932075363244 7.280319209615991 7.857531513640538 C7.315667164695359 7.811310740030888 7.351015119774726 7.766449400939167 7.386363074854093 7.720228627329519 C7.293914576954209 7.837139995871575 7.182432564780816 7.940457019234323 7.076388699542713 8.045133477115 C7.076388699542713 8.045133477115 6.525776322344865 8.595432569973424 6.525776322344865 8.595432569973424 C6.525776322344865 8.595432569973424 5.30763140884049 9.8134858980395 5.30763140884049 9.8134858980395 C5.156722831386265 9.96438312952983 5.008533327399684 10.116639795538088 4.839950772405775 10.247145509259454 C4.886175021355717 10.21180021179325 4.931039733571838 10.176454914327048 4.977263982521782 10.141109616860845 C4.78422674870387 10.289109705626128 4.573168606428956 10.41198929806618 4.349158011496089 10.506797502184254 C4.403539480848963 10.483687115379428 4.457920950201837 10.460576728574605 4.510942882820888 10.43882577628771 C4.274206821787676 10.538028981568473 4.025604436423093 10.606115324323756 3.771354899621804 10.641381519459411 C3.771354899621804 10.641381519459411 3.9521732852201095 10.616911698136656 3.9521732852201095 10.616911698136656 C3.693158820393184 10.650897276205459 3.4308136648332948 10.650897276205459 3.1717992000063693 10.616911698136656 C3.1717992000063693 10.616911698136656 3.352617585604675 10.641381519459411 3.352617585604675 10.641381519459411 C3.098368048803386 10.606115324323756 2.849765663438803 10.538028981568473 2.6130296024055903 10.43882577628771 C2.667411071758464 10.461936163092535 2.721792541111338 10.48504654989736 2.7748144737303897 10.506797502184254 C2.5509576245698242 10.411682242013576 2.339936899896117 10.288824434374323 2.146708502704697 10.141109616860845 C2.1929327516546397 10.17645491432705 2.23779746387076 10.211800211793252 2.2840217128207034 10.247145509259454 C2.0853921638685327 10.092267035102752 1.906825109747484 9.913256747533437 1.752442849896361 9.714247178230545 C1.7877908049757292 9.760467951840194 1.8231387600550968 9.805329290931915 1.858486715134465 9.851550064541565 C1.7104754982414687 9.658527344103359 1.5875866664839973 9.44748507009851 1.4927713337363884 9.223491317257494 C1.5158834582113596 9.277868697974728 1.5389955826863313 9.332246078691965 1.5607481704274808 9.385264024891269 C1.4616066963087146 9.148625890730285 1.3935613780001703 8.900135212112266 1.358313150761407 8.646003534040453 C1.3664703711643382 8.705818652829413 1.3746275915672694 8.766993206136302 1.3827848119702004 8.826808324925262 C1.348796678525543 8.567813333933529 1.348796678525543 8.305487902624662 1.3827848119702004 8.046492911632932 C1.3746275915672694 8.10630803042189 1.3664703711643382 8.167482583728779 1.358313150761407 8.227297702517738 C1.393581997562523 7.973067281303607 1.4616734597303958 7.724483586948751 1.5608841241008622 7.487765324763335 C1.5377719996258912 7.542142705480572 1.5146598751509197 7.596520086197807 1.49290728740977 7.649538032397111 C1.588029699297529 7.425698013769119 1.7108967446162024 7.214693154552259 1.858622668807847 7.021479285113039 C1.823274713728479 7.06770005872269 1.7879267586491112 7.11256139781441 1.752578803569743 7.158782171424059 C1.9483520932400886 6.905927351088914 2.1903496318603777 6.685698959184109 2.416032729674804 6.461392263725513 C2.416032729674804 6.461392263725513 3.6137845921718506 5.263730453428401 3.6137845921718506 5.263730453428401 C3.6137845921718506 5.263730453428401 5.090241485102377 3.787384566955455 5.090241485102377 3.787384566955455 C5.090241485102377 3.787384566955455 6.349036546948025 2.5285482033514532 6.349036546948025 2.5285482033514532 C6.525776322344865 2.3518217160204378 6.701156561007882 2.1750952286894223 6.879255873138544 1.9983687413584068 C6.967907625496098 1.9102107891448115 7.061892735169565 1.8275827509303357 7.160679977039668 1.750951659094985 C7.114455728089725 1.786296956561188 7.069591015873603 1.821642254027391 7.023366766923662 1.8569875514935945 C7.216404000741574 1.7089874627283124 7.427462143016486 1.5861078702882598 7.651472737949356 1.4912996661701854 C7.597091268596481 1.5144100529750104 7.542709799243608 1.5375204397798357 7.489687866624555 1.5592713920667296 C7.726423927657768 1.4600681867859655 7.975026313022351 1.3919818440306824 8.22927584982364 1.3567156488950274 C8.22927584982364 1.3567156488950274 8.048457464225333 1.3811854702177833 8.048457464225333 1.3811854702177833 C8.307471929052259 1.3471998921489807 8.56981708461215 1.3471998921489807 8.828831549439075 1.3811854702177833 C8.828831549439075 1.3811854702177833 8.64801316384077 1.3567156488950274 8.64801316384077 1.3567156488950274 C8.902262700642058 1.3919818440306826 9.150865086006641 1.460068186785965 9.387601147039854 1.5592713920667296 C9.33321967768698 1.5361610052619048 9.278838208334108 1.5130506184570793 9.225816275715054 1.4912996661701854 C9.44967312487562 1.5864149263408627 9.660693849549329 1.709272733980117 9.853922246740748 1.8569875514935945 C9.807697997790807 1.8216422540273913 9.762833285574683 1.7862969565611886 9.716609036624742 1.750951659094985 C9.913581300655476 1.9053108028538657 10.09075328379513 2.0833826544147986 10.244109289347616 2.281131121088032 C10.20876133426825 2.2349103474783814 10.173413379188881 2.190049008386662 10.138065424109515 2.143828234777012 C10.286076641002511 2.336850955215218 10.408965472759983 2.5478932292200662 10.503780805507592 2.7718869820610825 C10.48066868103262 2.7175096013438473 10.457556556557648 2.6631322206266117 10.435803968816497 2.610114274427307 C10.535014633186965 2.8468325366127223 10.603106095354839 3.0954162309675795 10.638374942155952 3.3496466521817103 C10.630217721753022 3.2898315333927517 10.622060501350091 3.2286569800858613 10.61390328094716 3.168841861296902 C10.647891414391818 3.4278368522886344 10.647891414391818 3.6901622835975 10.61390328094716 3.9491572745892327 C10.622060501350093 3.8893421558002736 10.630217721753024 3.8281676024933837 10.638374942155952 3.768352483704424 C10.603106095354839 4.022582904918554 10.535014633186965 4.271166599273412 10.435803968816497 4.507884861458827 C10.45891609329147 4.4535074807415915 10.482028217766441 4.399130100024356 10.503780805507592 4.346112153825051 C10.408658393619831 4.569952172453044 10.285791348301156 4.780957031669902 10.138065424109515 4.974170901109122 C10.173413379188883 4.927950127499472 10.20876133426825 4.883088788407753 10.244109289347616 4.836868014798102 C10.167866378802636 4.935972600770275 10.085210735504003 5.02997497318627 9.996673603792042 5.118270960009796 C9.87100281781961 5.24714062785396 9.799901463324773 5.4195241012104285 9.79818124065405 5.599510779357329 C9.79818124065405 5.766721225062829 9.871596224280431 5.965198664680739 9.996673603792042 6.0807505987048645 C10.125829593505117 6.199021401764851 10.295771685232847 6.287384645430359 10.477949607564975 6.279228038322775 C10.65740845642946 6.271071431215188 10.828710084891009 6.2098968779082995 10.959225611337908 6.0807505987048645 C11.647151198651763 5.387438994560111 12.040057314726276 4.410005576167801 11.996552139243978 3.4298532887396314 C11.973440014769006 2.909189868372101 11.842924488322108 2.417074572881119 11.61588185377386 1.9494290987128933 C11.503040304866648 1.7156063616287804 11.354850800880065 1.510331749421216 11.194425466289086 1.3064165717315828 C11.06659812254546 1.142821125674931 10.921665586185934 0.9933422017072047 10.762092784933738 0.8605220498502512 C10.362388985190117 0.5288200274751144 9.91510139976273 0.275965207139969 9.413432344982468 0.13458401727515662 C9.167356196160714 0.0652528568606813 8.90904421673456 0.027188690358616402 8.653451310776056 0.008156607107583952 C8.454877523918945 -0.006362128965294781 8.255337310306953 -0.0004401478076943901 8.057974221362088 0.025829255840685506 C7.801021778669758 0.05845568427102685 7.549507482912717 0.1005981543268844 7.3047908708247835 0.18624252895653043 C7.0655124056721395 0.2691680345503146 6.827593477253316 0.3724850579130622 6.610067599841821 0.5029907716344275 C6.351945871684203 0.6595565994320444 6.113663747887202 0.8466989855831637 5.900389424786816 1.0603589239860933 C5.900389424786816 1.0603589239860933 5.3837654659345135 1.5769440407998312 5.3837654659345135 1.5769440407998312 C5.3837654659345135 1.5769440407998312 4.373629672704881 2.587003887622482 4.373629672704881 2.587003887622482 C4.373629672704881 2.587003887622482 3.1541252224666843 3.8064166502064887 3.1541252224666843 3.8064166502064887 C3.1541252224666843 3.8064166502064887 2.0053166823872237 4.95513881785809 2.0053166823872237 4.95513881785809 C2.0053166823872237 4.95513881785809 1.2222235237058405 5.738173100186282 1.2222235237058405 5.738173100186282 C0.9367208096032527 6.023654348951769 0.6634539261050614 6.3213705083786325 0.4636020262332499 6.677542352076526 C0.33924498789186863 6.899941606265803 0.2381065471593083 7.134546925647255 0.1617848713247999 7.377651128810935 C0.08293174076313278 7.623708776556425 0.043505175482299235 7.877923031409502 0.0163144408058623 8.133496720780508 C-0.00521050860033374 8.334548356506952 -0.00566616170326239 8.537298742507557 0.01495490407204045 8.738445081259755 C0.04078610201465553 8.9912999015949 0.08021266729548909 9.242795287412115 0.1549871876556907 9.486134066121744 C0.3099743753113813 9.98504653420238 0.5669268180037104 10.43094105608371 0.9108896116606375 10.822458197247807 C1.08219124012219 11.018216767829855 1.2820431399940015 11.181348909981562 1.4900522602687443 11.337683879543613 C1.6542379433644252 11.460030274145689 1.8310846138147956 11.564398425500395 2.0175525129916214 11.648994384149788 C2.251392831208979 11.755030276548396 2.4893117596278023 11.848831258285628 2.7408260553848436 11.905927508038724 C2.9916814415797415 11.962970513847765 3.2476807089009974 11.994398665791786 3.5048856997927214 11.999728489775956 C3.956251895421574 12.007885096883541 4.426651605323934 11.93039732936148 4.845388919341062 11.759108580102188 C5.083307847759885 11.66122929481116 5.3144290925096 11.556552836930486 5.527876359719629 11.41109334351188 C5.725690593670896 11.277825746826554 5.910905303881998 11.126752870640697 6.081207810385121 10.959761083558824 C6.158701404212966 10.883632750554693 6.234835461306989 10.806144983032635 6.312329055134834 10.728657215510573 C6.312329055134834 10.728657215510573 7.435306397271679 9.605764303699658 7.435306397271679 9.605764303699658 C7.699056523633119 9.342034007221066 7.9628066499945565 9.081022579778335 8.225197239622172 8.815932848781811 C8.369663806037313 8.673624291461286 8.492017698946976 8.510498033046256 8.588193547552608 8.331974160398415 C8.737742588273012 8.047852346150858 8.812517108633212 7.762371097385373 8.83970784330965 7.444263420189545 C8.887291628993413 6.877379226212364 8.658889457711343 6.310495032235183 8.285016855910337 5.893148635230401 C7.908425180641683 5.471723934671825 7.346936509573262 5.239260632105642 6.788166911972483 5.221587983372541 C6.631820187582969 5.216150245300819 6.474113926459635 5.239260632105643 6.3204862755377675 5.2650898879463295 C6.221891796912499 5.281763872646611 6.125298471064839 5.308643956367889 6.032264487967535 5.345296524504251 C5.737245016728195 5.462207893046309 5.480292574035866 5.610386255500775 5.253249939487618 5.836052385477303 C5.007173790665863 6.079391164186931 4.763816715311753 6.325448811932422 4.5191001032238205 6.570147025159983 C4.5191001032238205 6.570147025159983 3.40020137128844 7.688961633417105 3.40020137128844 7.688961633417105 C3.40020137128844 7.688961633417105 3.1962708612151634 7.892876811106738 3.1962708612151634 7.892876811106738 C3.0706000752427323 8.021746478950902 2.999498720747895 8.194129952307371 2.997778498077173 8.374116630454273 C2.997778498077173 8.54132707615977 3.0711934817035536 8.739804515777681 3.1962708612151634 8.855356449801807 C3.3254268509282388 8.973627252861794 3.4953689426559693 9.061990496527303 3.6775468649880967 9.053833889419717 C3.852927103651114 9.041598978758339 4.024228732112666 8.98042442545145 4.153384721825743 8.851278146248015 C4.153384721825743 8.851278146248015 4.1535206754991245 8.851006259344432 4.1535206754991245 8.851006259344432 Z" style="stroke-width: 0; stroke-linecap: butt; stroke-linejoin: miter; fill: rgb(139, 139, 139);" vector-effect="non-scaling-stroke"/></g></g></svg>