<svg version="1.2" xmlns="http://www.w3.org/2000/svg" xmlns:xlink="http://www.w3.org/1999/xlink" overflow="visible" preserveAspectRatio="none" viewBox="0 0 16.619999885559082 16.619999885559082" width="14" height="14"><g transform="translate(1, 1)"><g id="Layer_2_1610456448191"><g id="Layer_1-2_1610456448191"><path d="M14.47,12.28a3.82,3.82,0,0,1-3.41,2.33c-.18,0-3.08.16-7.25-3.8A11.6,11.6,0,0,1,0,3.55C0,2.92.15,1.33,2.34.15c.27-.15.8-.21.94-.07s1.9,3.08,2,3.18a.65.65,0,0,1,.07.29A.89.89,0,0,1,5,4.07a4.42,4.42,0,0,1-.65.57,5.62,5.62,0,0,0-.64.55.8.8,0,0,0-.29.47c0,.33.28,1.48,2.29,3.25a16.35,16.35,0,0,0,3.07,2.3.8.8,0,0,0,.23,0A.77.77,0,0,0,9.5,11c.19-.19.84-1.08,1.05-1.28a.82.82,0,0,1,.51-.29.66.66,0,0,1,.3.07c.1,0,3.12,1.82,3.18,1.87s.05.67-.07.95" vector-effect="non-scaling-stroke" style="fill: rgb(193, 193, 193);"/></g></g></g></svg>