<svg version="1.2" xmlns="http://www.w3.org/2000/svg" xmlns:xlink="http://www.w3.org/1999/xlink" overflow="visible" preserveAspectRatio="none" viewBox="0 0 9.999987717449805 13.000013112496793" width="9.999987717449805" height="13.000013112496793"><g transform="translate(0, 0)"><g transform="translate(0.000001405486720026048, 0.000004194234873658758) rotate(0)"><path d="M9.99996,3.38939v8.50067c0,0.61301 -0.59642,1.10995 -1.33215,1.10995h-7.33563c-0.73573,0 -1.33215,-0.49694 -1.33215,-1.10995v-8.50067c-0.0008,-0.03716 0.01656,-0.073 0.0481,-0.09928c0.03154,-0.02628 0.07455,-0.04075 0.11915,-0.04008h9.66543c0.0446,-0.00067 0.08761,0.0138 0.11915,0.04008c0.03154,0.02628 0.0489,0.06212 0.0481,0.09928zM9.83377,1.0452h-2.94905c-0.07293,0.00063 -0.13647,-0.05223 -0.15281,-0.12712l-0.13405,-0.79094c-0.01426,-0.07507 -0.07749,-0.1286 -0.15013,-0.12712h-2.90616c-0.07293,-0.00063 -0.13647,0.05223 -0.15281,0.12712l-0.15281,0.77682c-0.01426,0.07507 -0.07749,0.1286 -0.15013,0.12712h-2.93296c-0.04075,-0.00077 -0.08005,0.01594 -0.10887,0.04631c-0.02882,0.03037 -0.04468,0.07177 -0.04395,0.11471v0.81354c-0.00073,0.04294 0.01513,0.08434 0.04395,0.11471c0.02882,0.03037 0.06812,0.04708 0.10887,0.04631h9.69433c0.0844,0 0.15281,-0.07209 0.15281,-0.16101v-0.81354c0,-0.08892 -0.06842,-0.16101 -0.15281,-0.16101z" style="stroke-width: 0; stroke-linecap: butt; stroke-linejoin: miter; fill: rgb(255, 91, 91);" vector-effect="non-scaling-stroke"/></g><defs><path id="path-161310400407211" d="M9.99996,3.38939v8.50067c0,0.61301 -0.59642,1.10995 -1.33215,1.10995h-7.33563c-0.73573,0 -1.33215,-0.49694 -1.33215,-1.10995v-8.50067c-0.0008,-0.03716 0.01656,-0.073 0.0481,-0.09928c0.03154,-0.02628 0.07455,-0.04075 0.11915,-0.04008h9.66543c0.0446,-0.00067 0.08761,0.0138 0.11915,0.04008c0.03154,0.02628 0.0489,0.06212 0.0481,0.09928zM9.83377,1.0452h-2.94905c-0.07293,0.00063 -0.13647,-0.05223 -0.15281,-0.12712l-0.13405,-0.79094c-0.01426,-0.07507 -0.07749,-0.1286 -0.15013,-0.12712h-2.90616c-0.07293,-0.00063 -0.13647,0.05223 -0.15281,0.12712l-0.15281,0.77682c-0.01426,0.07507 -0.07749,0.1286 -0.15013,0.12712h-2.93296c-0.04075,-0.00077 -0.08005,0.01594 -0.10887,0.04631c-0.02882,0.03037 -0.04468,0.07177 -0.04395,0.11471v0.81354c-0.00073,0.04294 0.01513,0.08434 0.04395,0.11471c0.02882,0.03037 0.06812,0.04708 0.10887,0.04631h9.69433c0.0844,0 0.15281,-0.07209 0.15281,-0.16101v-0.81354c0,-0.08892 -0.06842,-0.16101 -0.15281,-0.16101z" vector-effect="non-scaling-stroke"/></defs></g></svg>