<?xml version="1.0" standalone="no"?>
<svg version="1.2" xmlns="http://www.w3.org/2000/svg" xmlns:xlink="http://www.w3.org/1999/xlink" overflow="visible" preserveAspectRatio="none" viewBox="0 0 18 18" width="18" height="18"><g transform="translate(2, 2)"><defs><path id="path-161286579653148291" d="M15.235294117647049 1.7701250000000004 C15.235294117647049 1.7701250000000004 1.2352941176470587 1.7701250000000004 1.2352941176470587 1.7701250000000004 C1.2352941176470587 1.7701250000000004 6.835294117647059 9.128 6.835294117647059 9.128 C6.835294117647059 9.128 6.835294117647059 14.214374999999999 6.835294117647059 14.214374999999999 C6.835294117647059 14.214374999999999 9.635294117647057 15.770125000000002 9.635294117647057 15.770125000000002 C9.635294117647057 15.770125000000002 9.635294117647057 9.128 9.635294117647057 9.128 C9.635294117647057 9.128 15.235294117647049 1.7701250000000004 15.235294117647049 1.7701250000000004 Z"/></defs><g transform="translate(-1.2352941176470587, -1.7701250000000004)"><path d="M15.235294117647049 1.7701250000000004 C15.235294117647049 1.7701250000000004 1.2352941176470587 1.7701250000000004 1.2352941176470587 1.7701250000000004 C1.2352941176470587 1.7701250000000004 6.835294117647059 9.128 6.835294117647059 9.128 C6.835294117647059 9.128 6.835294117647059 14.214374999999999 6.835294117647059 14.214374999999999 C6.835294117647059 14.214374999999999 9.635294117647057 15.770125000000002 9.635294117647057 15.770125000000002 C9.635294117647057 15.770125000000002 9.635294117647057 9.128 9.635294117647057 9.128 C9.635294117647057 9.128 15.235294117647049 1.7701250000000004 15.235294117647049 1.7701250000000004 Z" style="stroke: rgb(139, 139, 139); stroke-width: 2; stroke-linecap: round; stroke-linejoin: round; fill: none;"/></g></g></svg>