<svg version="1.2" xmlns="http://www.w3.org/2000/svg" xmlns:xlink="http://www.w3.org/1999/xlink" overflow="visible" preserveAspectRatio="none" viewBox="0 0 19.469999313354492 14.479999542236328" width="17" height="12"><g transform="translate(1, 1)"><g id="Layer_2_1610456448191"><g id="Layer_1-2_1610456448191"><path d="M17.47,2.06v8.36a2.06,2.06,0,0,1-2.06,2.06H2.06A2.06,2.06,0,0,1,0,10.42V2.06a1.93,1.93,0,0,1,.15-.75L8.39,6.76a.62.62,0,0,0,.69,0l8.24-5.47A2,2,0,0,1,17.47,2.06Zm-1-1.74A2,2,0,0,0,15.41,0H2.06A2,2,0,0,0,.94.34l7.8,5.15Z" vector-effect="non-scaling-stroke" style="fill: rgb(193, 193, 193);"/></g></g></g></svg>