<svg version="1.2" xmlns="http://www.w3.org/2000/svg" xmlns:xlink="http://www.w3.org/1999/xlink" overflow="visible" preserveAspectRatio="none" viewBox="0 0 22 22" width="18" height="18"><g transform="translate(1, 1)"><g id="Layer_2_1611030685869"><g id="Layer_1-2_1611030685869"><path d="M19.86.13a.44.44,0,0,0-.5-.09L.29,7.66A.45.45,0,0,0,0,8.09a.46.46,0,0,0,.29.43l8.05,3.09,0,0,3.09,8.06a.45.45,0,0,0,.43.29h0a.46.46,0,0,0,.43-.29L20,.6A.42.42,0,0,0,19.86.13ZM11.92,18.31l-2.57-6.7,3-3a.45.45,0,0,0,0-.63h0a.47.47,0,0,0-.64,0l-2.81,2.8L1.69,8.07l17-6.81Z" style="stroke: rgb(255, 255, 255); stroke-width: 1px;" vector-effect="non-scaling-stroke"/></g></g></g></svg>