<svg xmlns="http://www.w3.org/2000/svg" viewBox="0 0 15 15"><defs><style>.cls-1{fill:#8b8b8b;stroke:#8c8c8c;stroke-linecap:round;stroke-linejoin:round;}</style></defs><g id="Layer_2" data-name="Layer 2"><g id="Layer_1-2" data-name="Layer 1"><path class="cls-1" d="M.5,7.5a1,1,0,0,1,1-1h0a1,1,0,0,1,1,1v6a1,1,0,0,1-1,1h0a1,1,0,0,1-1-1Z"/><path class="cls-1" d="M6.5,3.5a1,1,0,0,1,1-1h0a1,1,0,0,1,1,1v10a1,1,0,0,1-1,1h0a1,1,0,0,1-1-1Z"/><path class="cls-1" d="M12.5,1.5a1,1,0,0,1,1-1h0a1,1,0,0,1,1,1v12a1,1,0,0,1-1,1h0a1,1,0,0,1-1-1Z"/></g></g></svg>