<svg version="1.2" xmlns="http://www.w3.org/2000/svg" xmlns:xlink="http://www.w3.org/1999/xlink" overflow="visible" preserveAspectRatio="none" viewBox="0 0 321.29998779296875 284.25" width="13" height="12"><g transform="translate(0, 0)"><defs><style>.cls-1_1611746319262{fill-rule:evenodd;}</style></defs><g id="Layer_2_1611746319262"><g id="Layer_1-2_1611746319262"><path d="M180.08,11.25l138,240c9,14-2,33-19,33h-277c-16,0-29-18-18-35,46-80,92-159,138-238C150.08-3.75,172.08-3.75,180.08,11.25Zm-36,88c0-18,28-18,28,0v83c0,18-28,18-28,0Zm28,121c0,18-28,18-28-1C144.08,202.25,172.08,201.25,172.08,220.25Z" class="cls-1_1611746319262" style="fill: rgb(255, 91, 91); stroke-width: 0px;" vector-effect="non-scaling-stroke"/></g></g></g></svg>